<?xml version="1.0" standalone="no"?><!DOCTYPE svg PUBLIC "-//W3C//DTD SVG 1.1//EN" "http://www.w3.org/Graphics/SVG/1.1/DTD/svg11.dtd"><svg t="1627651368371" class="icon" viewBox="0 0 1920 850" version="1.1" xmlns="http://www.w3.org/2000/svg" p-id="5305" xmlns:xlink="http://www.w3.org/1999/xlink" width="4618" height="2048"><defs><style type="text/css"></style></defs><path d="M73.037654 928.484821a36.598332 36.626916 83 1 0 72.707809-8.927396 36.598332 36.626916 83 1 0-72.707809 8.927396Z" fill="#CFDAE6" opacity=".25" p-id="5306"></path><path d="M0.763902 905.847482a8.765373 8.772099 83 1 0 17.413425-2.1381 8.765373 8.772099 83 1 0-17.413425 2.1381Z" fill="#CFDAE6" opacity=".6" p-id="5307"></path><path d="M78.386002 1022.499666c9.617938-1.180934 16.458543-9.928785 15.278429-19.540048-1.17991-9.609594-9.933616-16.442704-19.551554-15.261769-9.617938 1.180934-16.456875 9.92858-15.276965 19.538173 1.180115 9.611263 9.932152 16.444577 19.55009 15.263644z" fill="#CFDAE6" opacity=".45" p-id="5308"></path><path d="M196.332179 873.135438a15.36 15.34823 23 1 0 28.277909 12.00326 15.36 15.34823 23 1 0-28.277909-12.00326Z" fill="#CFDAE6" opacity=".45" p-id="5309"></path><path d="M196.332179 873.135438c-3.311244 7.800803 0.334039 16.813673 8.142581 20.128203s16.823428-0.322592 20.135328-8.124943L196.332179 873.135438z" fill="#CFDAE6" opacity=".8" p-id="5310"></path><path d="M167.37058 109.594276a48.997307 48.960315 85 1 0 97.548013-8.534345 48.997307 48.960315 85 1 0-97.548013 8.534345Z" fill="#CFDAE6" opacity=".25" p-id="5311"></path><path d="M180.015506 108.487989a36.29399 36.267087 85 1 0 72.25816-6.32177 36.29399 36.267087 85 1 0-72.25816 6.32177Z" fill="#CFDAE6" opacity=".3" p-id="5312"></path><path d="M198.080884 106.907473a18.147836 18.132703 85 1 0 36.127405-3.160738 18.147836 18.132703 85 1 0-36.127405 3.160738Z" fill="#BACAD9" opacity=".5" p-id="5313"></path><path d="M217.726274 123.405882L214.563045 87.250001c-9.976577 0.872837-17.357259 9.674341-16.483836 19.657619s9.670488 17.3711 19.647065 16.498262z" fill="#BACAD9" p-id="5314"></path><path d="M472.372759 266.897765a10.889038 10.880631 85 1 0 21.678453-1.896619 10.889038 10.880631 85 1 0-21.678453 1.896619Z" fill="#E6A1A6" opacity=".45" p-id="5315"></path><path d="M484.161028 276.797057c-5.986616 0.523761-11.264214-3.909326-11.788269-9.899292A10.883993 10.883993 0 0 1 482.261415 255.103675l1.897938 21.693529z" fill="#E6A1A6" opacity=".45" p-id="5316"></path><path d="M546.51408 261.322689a2.722259 2.720578 85 1 0 5.420451-0.474228 2.722259 2.720578 85 1 0-5.420451 0.474228Z" fill="#CFDAE6" p-id="5317"></path><path d="M486.86131 328.47794a2.722259 2.720578 85 1 0 5.420451-0.474228 2.722259 2.720578 85 1 0-5.420451 0.474228Z" fill="#E0B4B7" opacity=".35" p-id="5318"></path><path d="M476.185172 206.449121a3.63024 3.626877 85 1 0 7.226151-0.632206 3.63024 3.626877 85 1 0-7.226151 0.632206Z" fill="#E0B4B7" opacity=".35" p-id="5319"></path><path d="M1781.93533 44.002702a14.386443 14.250246 79 1 0 27.976858-5.438151 14.386443 14.250246 79 1 0-27.976858 5.438151Z" fill="#BACAD9" opacity=".45" p-id="5320"></path><path d="M1798.668822 55.40575c7.724584-1.501507 12.759632-9.04069 11.243366-16.841199-1.516265-7.800509-9.007258-12.904877-16.733492-11.403048l5.490126 28.244247z" fill="#BACAD9" opacity=".8" p-id="5321"></path><path d="M1733.019964 103.486925a4.748401 4.703002 79 1 0 9.233188-1.79475 4.748401 4.703002 79 1 0-9.233188 1.79475Z" fill="#F7E1AD" opacity=".8" p-id="5322"></path><path d="M2150.618754 711.847619m1.709771 19.542768a19.617419 19.617419 0 1 0-3.419542-39.085537 19.617419 19.617419 0 1 0 3.419542 39.085537Z" fill="#BACAD9" opacity=".45" p-id="5323"></path><path d="M2152.328525 731.390387c10.792325-0.944206 18.775675-10.458392 17.831323-21.252392-0.944206-10.792325-10.458392-18.775675-21.250718-17.83147L2152.328525 731.390387z" fill="#BACAD9" opacity=".33" p-id="5324"></path><path d="M2246.344893 665.421911m-9.658865 1.703119a9.807869 9.807869 0 1 0 19.31773-3.406237 9.807869 9.807869 0 1 0-19.31773 3.406237Z" fill="#CFDAE6" opacity=".33" p-id="5325"></path><path d="M2148.975071 548.134349m-14.489125 2.554823a14.712644 14.712644 0 1 0 28.978251-5.109647 14.712644 14.712644 0 1 0-28.978251 5.109647Z" fill="#C1D1E0" opacity=".33" p-id="5326"></path><path d="M1994.730924 814.365512m-8.693476 1.532894a8.827586 8.827586 0 1 0 17.386951-3.065788 8.827586 8.827586 0 1 0-17.386951 3.065788Z" fill="#C1D1E0" opacity=".33" p-id="5327"></path><path d="M1910.778833 631.96568m-14.489125 2.554824a14.712644 14.712644 0 1 0 28.978251-5.109648 14.712644 14.712644 0 1 0-28.978251 5.109648Z" fill="#D1DEED" fill-opacity=".6" opacity=".33" p-id="5328"></path><path d="M2299.201083 558.495918m-9.658865 1.703119a9.807869 9.807869 0 1 0 19.31773-3.406237 9.807869 9.807869 0 1 0-19.31773 3.406237Z" fill="#D1DEED" fill-opacity=".6" opacity=".33" p-id="5329"></path><path d="M2245.28759 913.605867m-8.693475 1.532894a8.827586 8.827586 0 1 0 17.386951-3.065788 8.827586 8.827586 0 1 0-17.386951 3.065788Z" fill="#E0B4B7" opacity=".33" p-id="5330"></path></svg>